<?xml version="1.0" encoding="iso-8859-1"?>
<!-- Generator: Adobe Illustrator 18.1.1, SVG Export Plug-In . SVG Version: 6.00 Build 0)  -->
<svg version="1.1" id="Capa_1" xmlns="http://www.w3.org/2000/svg" xmlns:xlink="http://www.w3.org/1999/xlink" x="0px" y="0px"
	 viewBox="0 0 49.438 49.438" style="enable-background:new 0 0 49.438 49.438;" xml:space="preserve">
<g>
	<path style="fill:#030104;" d="M6.5,43.386h36.437c3.584,0,6.501-2.894,6.501-6.448V17.835c0-3.552-2.91-6.441-6.487-6.448
		l0.05-0.001v-1.002c0.035-0.551-0.321-0.998-0.874-0.998h-3.5c-0.553,0-1,0.447-1,1v1h-1.293c-0.534-3.025-3.196-5.334-6.397-5.334
		H19.5c-3.2,0-5.861,2.309-6.396,5.334H6.5c-3.584,0-6.5,2.893-6.5,6.449v19.103C0,40.492,2.916,43.386,6.5,43.386z M2.149,17.835
		c0-2.371,1.952-4.299,4.351-4.299H13h2.149l0.167-2.15c0.501-1.828,2.178-3.184,4.184-3.184h10.437
		c2.007,0,3.684,1.355,4.185,3.184l0.167,2.15h2.149h6.499c2.4,0,4.352,1.928,4.352,4.299v19.103c0,2.37-1.952,4.299-4.352,4.299
		H6.5c-2.398,0-4.351-1.929-4.351-4.299V17.835z M18.238,13.052H31.05c0.449,0,0.812-0.363,0.812-0.812s-0.363-0.812-0.812-0.812
		H18.238c-0.448,0-0.812,0.363-0.812,0.812S17.79,13.052,18.238,13.052z M24.72,39.378c6.689,0,12.132-5.442,12.132-12.132
		c0-6.689-5.442-12.132-12.132-12.132s-12.132,5.442-12.132,12.132S18.03,39.378,24.72,39.378z M24.72,17.145
		c5.57,0,10.101,4.531,10.101,10.102c0,5.57-4.531,10.102-10.101,10.102s-10.102-4.531-10.102-10.102S19.149,17.145,24.72,17.145z
		 M18.326,27.923c0-4.023,3.272-7.295,7.295-7.295c0.374,0,0.677-0.303,0.677-0.677s-0.303-0.677-0.677-0.677
		c-4.768,0-8.648,3.88-8.648,8.648c0,0.374,0.303,0.677,0.677,0.677C18.023,28.6,18.326,28.297,18.326,27.923z"/>
</g>
<g>
</g>
<g>
</g>
<g>
</g>
<g>
</g>
<g>
</g>
<g>
</g>
<g>
</g>
<g>
</g>
<g>
</g>
<g>
</g>
<g>
</g>
<g>
</g>
<g>
</g>
<g>
</g>
<g>
</g>
</svg>
